<svg width="96" height="96" viewBox="0 0 96 96" fill="none" xmlns="http://www.w3.org/2000/svg">
<rect width="96" height="96" fill="#ED3420"/>
<path d="M10.64 59V57.72L20.176 37.56H25.936L35.472 57.72V59H30.288L28.432 54.84H17.648L15.824 59H10.64ZM26.32 50.04L23.056 42.712L19.792 50.04H26.32ZM37.4513 47.448C37.4513 45.9973 37.6326 44.632 37.9953 43.352C38.3579 42.072 38.9766 40.9627 39.8513 40.024C40.7259 39.064 41.9099 38.3067 43.4033 37.752C44.8966 37.1973 46.7739 36.92 49.0353 36.92H50.1873C51.6379 36.92 53.0459 37.016 54.4113 37.208C55.7766 37.3787 57.1206 37.6347 58.4433 37.976V43.192C57.6966 42.9787 56.9393 42.7973 56.1713 42.648C55.4246 42.4987 54.6779 42.3813 53.9313 42.296C53.2059 42.1893 52.5019 42.1147 51.8193 42.072C51.1579 42.0293 50.5606 42.008 50.0273 42.008C48.3633 42.008 47.0726 42.168 46.1553 42.488C45.2593 42.7867 44.5979 43.2133 44.1713 43.768C43.7659 44.3227 43.5206 44.984 43.4353 45.752C43.3713 46.52 43.3393 47.3627 43.3393 48.28C43.3393 49.1973 43.3713 50.04 43.4353 50.808C43.5206 51.576 43.7659 52.248 44.1713 52.824C44.5979 53.3787 45.2593 53.816 46.1553 54.136C47.0726 54.4347 48.3633 54.584 50.0273 54.584C50.5606 54.584 51.1579 54.5627 51.8193 54.52C52.5019 54.4773 53.2059 54.4133 53.9313 54.328C54.6779 54.2213 55.4246 54.0933 56.1713 53.944C56.9393 53.7733 57.6966 53.5813 58.4433 53.368V58.616C57.1206 58.936 55.7766 59.1813 54.4113 59.352C53.0459 59.544 51.6379 59.64 50.1873 59.64H49.0353C46.7739 59.64 44.8966 59.3627 43.4033 58.808C41.9099 58.2533 40.7259 57.5067 39.8513 56.568C38.9766 55.608 38.3579 54.488 37.9953 53.208C37.6326 51.928 37.4513 50.5627 37.4513 49.112V47.448ZM69.71 59V42.68H61.39V37.56H83.822V42.68H75.47V59H69.71Z" fill="white"/>
</svg>
