<svg width="22" height="22" viewBox="0 0 22 22" fill="none" xmlns="http://www.w3.org/2000/svg">
<path d="M11 2C6.02944 2 2 6.02944 2 11C2 11.5523 1.55228 12 1 12C0.447715 12 0 11.5523 0 11C0 4.92487 4.92487 0 11 0C14.2663 0 17.1989 1.42353 19.2129 3.68246C19.4736 3.97485 20 3.79917 20 3.40744V2C20 1.44772 20.4477 1 21 1C21.5523 1 22 1.44772 22 2V4.5C22 6.433 20.433 8 18.5 8H16C15.4477 8 15 7.55229 15 7C15 6.44772 15.4477 6 16 6H17.6558C18.0097 6 18.2156 5.60807 17.9926 5.33325C16.3419 3.29888 13.822 2 11 2Z" fill="#282828"/>
<path d="M20.9999 10C21.5522 10 21.9999 10.4477 21.9999 11C21.9999 17.0751 17.0751 22 10.9999 22C7.73369 22 4.80107 20.5765 2.78706 18.3176C2.52638 18.0252 2 18.2009 2 18.5926V20C2 20.5523 1.55228 21 1 21C0.447715 21 0 20.5523 0 20V17.5C0 15.567 1.567 14 3.5 14H6C6.55228 14 7 14.4477 7 15C7 15.5523 6.55228 16 6 16H4.34419C3.99028 16 3.78434 16.3919 4.00734 16.6668C5.65807 18.7011 8.17797 20 10.9999 20C15.9705 20 19.9999 15.9706 19.9999 11C19.9999 10.4477 20.4477 10 20.9999 10Z" fill="#282828"/>
</svg>
