<svg width="34" height="36" viewBox="0 0 34 36" fill="none" xmlns="http://www.w3.org/2000/svg">
<path fill-rule="evenodd" clip-rule="evenodd" d="M9.91659 8.97221C9.91659 4.84286 13.0879 1.49536 16.9999 1.49536C20.9119 1.49536 24.0833 4.84286 24.0833 8.97221C24.0833 12.5894 21.6498 15.6067 18.4166 16.2995V28.412H15.5833V16.2995C12.3501 15.6067 9.91659 12.5894 9.91659 8.97221ZM16.9999 4.4861C14.6527 4.4861 12.7499 6.4946 12.7499 8.97221C12.7499 11.4498 14.6527 13.4583 16.9999 13.4583C19.3471 13.4583 21.2499 11.4498 21.2499 8.97221C21.2499 6.4946 19.3471 4.4861 16.9999 4.4861Z" fill="#ED3420"/>
<path d="M13.0221 22.6946L11.6388 23.0171C9.65512 23.4796 8.07674 24.1717 7.03163 24.9467C5.96132 25.7404 5.66659 26.4418 5.66659 26.9166C5.66659 27.2559 5.80726 27.6918 6.2781 28.214C6.7559 28.744 7.51422 29.2892 8.55967 29.7797C10.647 30.7589 13.6299 31.4027 16.9999 31.4027C20.37 31.4027 23.3529 30.7589 25.4402 29.7797C26.4856 29.2892 27.2439 28.744 27.7217 28.214C28.1926 27.6918 28.3333 27.2559 28.3333 26.9166C28.3333 26.4418 28.0385 25.7404 26.9682 24.9467C25.9231 24.1717 24.3447 23.4796 22.361 23.0171L20.9777 22.6946L21.5888 19.7742L22.9721 20.0967C25.1867 20.613 27.1499 21.4265 28.5969 22.4995C30.0188 23.5538 31.1666 25.0429 31.1666 26.9166C31.1666 28.2291 30.5937 29.3668 29.7742 30.2758C28.9616 31.1771 27.8527 31.9207 26.5909 32.5127C24.0636 33.6983 20.6715 34.3935 16.9999 34.3935C13.3283 34.3935 9.93622 33.6983 7.40894 32.5127C6.14709 31.9207 5.03823 31.1771 4.22565 30.2758C3.40612 29.3668 2.83325 28.2291 2.83325 26.9166C2.83325 25.0429 3.98108 23.5538 5.40289 22.4995C6.84989 21.4265 8.81318 20.613 11.0277 20.0967L12.411 19.7742L13.0221 22.6946Z" fill="#ED3420"/>
</svg>
