<svg width="25" height="25" viewBox="0 0 25 25" fill="none" xmlns="http://www.w3.org/2000/svg">
<path d="M1.27204 1.05597C0.386536 1.94147 0.386535 3.37715 1.27204 4.26265L9.40125 12.3918L1.27203 20.521C0.386533 21.4065 0.386535 22.8422 1.27203 23.7277C2.15754 24.6132 3.59322 24.6132 4.47872 23.7277L12.6079 15.5985L20.7371 23.7277C21.6226 24.6132 23.0583 24.6132 23.9438 23.7277C24.8293 22.8422 24.8293 21.4065 23.9438 20.521L15.8146 12.3918L23.9438 4.26268C24.8293 3.37718 24.8293 1.9415 23.9438 1.056C23.0583 0.170504 21.6226 0.170504 20.7371 1.056L12.6079 9.18517L4.47872 1.05597C3.59321 0.17047 2.15754 0.17047 1.27204 1.05597Z" fill="#ED3420"/>
</svg>
