<svg width="24" height="24" viewBox="0 0 24 24" fill="none" xmlns="http://www.w3.org/2000/svg">
<path fill-rule="evenodd" clip-rule="evenodd" d="M4.26733 6.24223C2.20556 4.40955 3.50187 1 6.26042 1H17.7396C20.4982 1 21.7945 4.40955 19.7327 6.24223L15.3357 10.1507C15.1222 10.3405 15 10.6125 15 10.8981V21.0858C15 22.8676 12.8457 23.7599 11.5858 22.5L9.58581 20.5C9.21074 20.1249 9.00003 19.6162 9.00003 19.0858V10.8981C9.00003 10.6125 8.87788 10.3405 8.66439 10.1507L4.26733 6.24223ZM6.26042 3C5.34091 3 4.9088 4.13652 5.59606 4.74741L9.99312 8.6559C10.6336 9.22521 11 10.0412 11 10.8981V19.0858L13 21.0858V10.8981C13 10.0412 13.3665 9.22521 14.0069 8.6559L18.404 4.74741C19.0912 4.13652 18.6591 3 17.7396 3H6.26042Z" fill="#282828"/>
</svg>
