<svg width="24" height="24" viewBox="0 0 24 24" fill="none" xmlns="http://www.w3.org/2000/svg">
<path d="M13.0909 18.5455H10.8982V16.3636H13.0909V18.5455Z" fill="#ED3420"/>
<path d="M10.9091 14.1818L10.9091 5.45454H13.0909L13.0909 14.1818L10.9091 14.1818Z" fill="#ED3420"/>
<path fill-rule="evenodd" clip-rule="evenodd" d="M24 12C24 18.6274 18.6274 24 12 24C5.37258 24 0 18.6274 0 12C0 5.37258 5.37258 0 12 0C18.6274 0 24 5.37258 24 12ZM12 21.8182C17.4224 21.8182 21.8182 17.4224 21.8182 12C21.8182 6.57757 17.4224 2.18182 12 2.18182C6.57757 2.18182 2.18182 6.57757 2.18182 12C2.18182 17.4224 6.57757 21.8182 12 21.8182Z" fill="#ED3420"/>
</svg>
